<svg width="22" height="22" viewBox="0 0 22 22" fill="none" xmlns="http://www.w3.org/2000/svg">
<mask id="mask0_96_3" style="mask-type:alpha" maskUnits="userSpaceOnUse" x="0" y="0" width="22" height="22">
<rect width="22" height="22" fill="white"/>
</mask>
<g mask="url(#mask0_96_3)">
<path fill-rule="evenodd" clip-rule="evenodd" d="M10.9698 13.0327L3.41017 20.5982C2.84072 21.168 1.91631 21.169 1.34563 20.6004C0.77514 20.0319 0.774138 19.1094 1.34339 18.5398L8.90752 10.9698L10.9698 13.0327ZM13.0316 10.9693L20.6568 18.5966C21.2262 19.1661 21.2254 20.0886 20.6551 20.6572C20.0845 21.226 19.1601 21.2252 18.5905 20.6555L10.9698 13.0327L13.0316 10.9693ZM13.0316 10.9693L10.9693 8.9064L18.5252 1.3447C19.0946 0.774809 20.0191 0.773809 20.5897 1.34246C21.1602 1.91092 21.1612 2.83342 20.592 3.40311L13.0316 10.9693ZM10.9693 8.9064L8.90752 10.9698L1.34319 3.40336C0.773803 2.83381 0.774577 1.91131 1.34492 1.34272C1.91547 0.773922 2.83988 0.774695 3.40947 1.34444L10.9693 8.9064Z" fill="#000A12"/>
<mask id="mask1_96_3" style="mask-type:alpha" maskUnits="userSpaceOnUse" x="0" y="0" width="22" height="22">
<path fill-rule="evenodd" clip-rule="evenodd" d="M10.9698 13.0327L3.41017 20.5982C2.84072 21.168 1.91631 21.169 1.34563 20.6004C0.77514 20.0319 0.774138 19.1094 1.34339 18.5398L8.90752 10.9698L10.9698 13.0327ZM13.0316 10.9693L20.6568 18.5966C21.2262 19.1661 21.2254 20.0886 20.6551 20.6572C20.0845 21.226 19.1601 21.2252 18.5905 20.6555L10.9698 13.0327L13.0316 10.9693ZM13.0316 10.9693L10.9693 8.9064L18.5252 1.3447C19.0946 0.774809 20.0191 0.773809 20.5897 1.34246C21.1602 1.91092 21.1612 2.83342 20.592 3.40311L13.0316 10.9693ZM10.9693 8.9064L8.90752 10.9698L1.34319 3.40336C0.773803 2.83381 0.774577 1.91131 1.34492 1.34272C1.91547 0.773922 2.83988 0.774695 3.40947 1.34444L10.9693 8.9064Z" fill="white"/>
</mask>
<g mask="url(#mask1_96_3)">
<rect width="22" height="22" fill="#D3DCE6"/>
</g>
</g>
</svg>
