<svg width="28" height="28" viewBox="0 0 28 28" fill="none" xmlns="http://www.w3.org/2000/svg">
<g clip-path="url(#clip0_696_2027)">
<path d="M14.0547 11.4844C12.6977 11.4844 11.5938 12.5883 11.5938 13.9453C11.5938 15.3023 12.6977 16.4062 14.0547 16.4062C15.4117 16.4062 16.5156 15.3023 16.5156 13.9453C16.5156 12.5883 15.4117 11.4844 14.0547 11.4844Z" fill="#064F7A"/>
<path d="M13.9453 0C6.2557 0 0 6.2557 0 13.9453C0 21.6349 6.2557 28 13.9453 28C21.6349 28 28 21.6349 28 13.9453C28 6.2557 21.6349 0 13.9453 0ZM19.7969 18.0469C18.6882 18.0469 17.7104 17.4912 17.1163 16.6471C16.3641 17.4984 15.2772 18.0469 14.0547 18.0469C11.7932 18.0469 9.95312 16.2068 9.95312 13.9453C9.95312 11.6838 11.7932 9.84375 14.0547 9.84375C14.9815 9.84375 15.828 10.1645 16.5156 10.685V10.6641C16.5156 10.2106 16.8825 9.84375 17.3359 9.84375C17.7894 9.84375 18.1562 10.2106 18.1562 10.6641C18.1562 12.4884 18.1562 12.9404 18.1562 14.7656C18.1562 15.67 18.8925 16.4062 19.7969 16.4062C20.7013 16.4062 21.4375 15.67 21.4375 14.7656C21.4375 9.27549 17.8045 6.5625 14.0547 6.5625C9.98359 6.5625 6.67188 9.87421 6.67188 13.9453C6.67188 18.0164 9.98359 21.3281 14.0547 21.3281C15.6953 21.3281 17.247 20.8026 18.5424 19.8076C19.4077 19.1471 20.3985 20.451 19.5421 21.1086C17.9568 22.3255 16.0598 22.9688 14.0547 22.9688C9.07916 22.9688 5.03125 18.9208 5.03125 13.9453C5.03125 8.96979 9.07916 4.92188 14.0547 4.92188C18.5881 4.92188 23.0781 8.2652 23.0781 14.7656C23.0781 16.5753 21.6065 18.0469 19.7969 18.0469Z" fill="#064F7A"/>
</g>
<defs>
<clipPath id="clip0_696_2027">
<rect width="28" height="28" fill="white"/>
</clipPath>
</defs>
</svg>
