<svg width="28" height="28" viewBox="0 0 28 28" fill="none" xmlns="http://www.w3.org/2000/svg">
<path d="M23.898 4.09852C18.4299 -1.36798 9.56552 -1.36667 4.09901 4.10153C-1.3675 9.56974 -1.36618 18.434 4.10202 23.9005C9.57022 29.367 18.4345 29.3657 23.901 23.8975C26.5264 21.2714 28.0008 17.7099 28 13.9965C27.9993 10.2838 26.5237 6.72342 23.898 4.09852ZM21.2025 19.5014C21.2019 19.502 21.2013 19.5026 21.2007 19.5032V19.4986L20.4913 20.2032C19.5739 21.1322 18.2379 21.5144 16.968 21.2112C15.6886 20.8688 14.4723 20.3236 13.3653 19.5966C12.3369 18.9393 11.3838 18.1709 10.5233 17.3052C9.73161 16.5193 9.02034 15.6563 8.39997 14.7292C7.7214 13.7316 7.18432 12.6449 6.80397 11.4999C6.36794 10.1548 6.72926 8.67882 7.73732 7.68723L8.56797 6.85658C8.79891 6.62459 9.17418 6.62377 9.40611 6.85472C9.40671 6.85532 9.40736 6.85592 9.40797 6.85658L12.0306 9.47923C12.2626 9.71017 12.2634 10.0854 12.0325 10.3174C12.0319 10.318 12.0313 10.3186 12.0306 10.3192L10.4906 11.8592C10.0487 12.2963 9.99318 12.9908 10.36 13.4926C10.917 14.257 11.5333 14.9763 12.2033 15.6439C12.9503 16.3941 13.7623 17.0766 14.63 17.6833C15.1313 18.033 15.8109 17.974 16.2446 17.5433L17.7333 16.0313C17.9642 15.7993 18.3395 15.7985 18.5714 16.0294C18.572 16.03 18.5726 16.0306 18.5733 16.0313L21.2006 18.6633C21.4327 18.8942 21.4335 19.2694 21.2025 19.5014Z" fill="#064F7A"/>
</svg>
