<svg width="20" height="20" viewBox="0 0 20 20" fill="none" xmlns="http://www.w3.org/2000/svg">
<g clip-path="url(#clip0_696_2074)">
<path d="M10 20C15.5228 20 20 15.5228 20 10C20 4.47715 15.5228 0 10 0C4.47715 0 0 4.47715 0 10C0 15.5228 4.47715 20 10 20Z" fill="#4D76A1"/>
<path fill-rule="evenodd" clip-rule="evenodd" d="M9.62359 14.3858H10.4085C10.4085 14.3858 10.6456 14.3598 10.7666 14.2293C10.878 14.1095 10.8744 13.8845 10.8744 13.8845C10.8744 13.8845 10.8591 12.8314 11.3479 12.6763C11.8297 12.5235 12.4485 13.6942 13.1043 14.1443C13.6002 14.4849 13.977 14.4102 13.977 14.4102L15.7306 14.3858C15.7306 14.3858 16.6479 14.3293 16.213 13.6081C16.1773 13.5491 15.9596 13.0745 14.9092 12.0995C13.8097 11.0789 13.9569 11.244 15.2814 9.47869C16.088 8.4036 16.4105 7.74725 16.3098 7.46614C16.2137 7.19839 15.6204 7.26916 15.6204 7.26916L13.646 7.28146C13.646 7.28146 13.4997 7.26149 13.3911 7.32638C13.285 7.39002 13.2168 7.53833 13.2168 7.53833C13.2168 7.53833 12.9043 8.37027 12.4875 9.07778C11.6083 10.5707 11.2568 10.6495 11.1131 10.5568C10.7789 10.3407 10.8623 9.68885 10.8623 9.22574C10.8623 7.77898 11.0818 7.17575 10.435 7.0196C10.2204 6.96772 10.0625 6.9335 9.51361 6.92797C8.80913 6.92066 8.21285 6.93011 7.87523 7.09554C7.65062 7.20552 7.47735 7.45063 7.58288 7.46471C7.71337 7.48218 8.00892 7.54439 8.16561 7.75777C8.36793 8.033 8.3608 8.65121 8.3608 8.65121C8.3608 8.65121 8.47703 10.3543 8.08932 10.5659C7.82317 10.711 7.4581 10.4147 6.67429 9.06031C6.27267 8.36653 5.96945 7.59965 5.96945 7.59965C5.96945 7.59965 5.91099 7.45633 5.8067 7.37968C5.68014 7.28681 5.50331 7.25722 5.50331 7.25722L3.62712 7.26952C3.62712 7.26952 3.34547 7.27736 3.24208 7.39982C3.1501 7.50874 3.23478 7.73406 3.23478 7.73406C3.23478 7.73406 4.70363 11.1705 6.36679 12.9023C7.8918 14.4901 9.62359 14.3858 9.62359 14.3858Z" fill="white"/>
</g>
<defs>
<clipPath id="clip0_696_2074">
<rect width="20" height="20" fill="white"/>
</clipPath>
</defs>
</svg>
