<svg width="20" height="20" viewBox="0 0 20 20" fill="none" xmlns="http://www.w3.org/2000/svg">
<path d="M10 20C15.5228 20 20 15.5228 20 10C20 4.47715 15.5228 0 10 0C4.47715 0 0 4.47715 0 10C0 15.5228 4.47715 20 10 20Z" fill="#D22215"/>
<path d="M15.0317 6.65381C14.7318 6.74533 14.4191 6.82396 14.1059 6.90228C11.8837 7.37365 8.92074 6.0942 7.64129 8.18174C6.57422 9.84166 6.2373 11.9188 5.02344 13.4029L11.5071 19.8867C15.8224 19.2335 19.2327 15.8228 19.8851 11.5073L15.0317 6.65381Z" fill="#D22215"/>
<path d="M13.3457 5.95068H6.65437C5.34156 5.95068 4.27734 7.01494 4.27734 8.32772V11.6727C4.27734 12.9855 5.3416 14.0497 6.65437 14.0497H13.3457C14.6585 14.0497 15.7227 12.9855 15.7227 11.6727V8.32772C15.7227 7.01494 14.6585 5.95068 13.3457 5.95068ZM11.7381 10.163L8.6084 11.6556C8.52496 11.6954 8.42859 11.6347 8.42859 11.5423V8.46361C8.42859 8.36986 8.5275 8.30912 8.61101 8.3515L11.7407 9.93748C11.8339 9.98463 11.8322 10.1181 11.7381 10.163Z" fill="white"/>
<path d="M13.3466 5.95068H9.93359V9.02119L11.7417 9.9374C11.8348 9.98459 11.8331 10.118 11.739 10.1629L9.93359 11.024V14.0497H13.3466C14.6594 14.0497 15.7236 12.9855 15.7236 11.6727V8.32772C15.7236 7.01494 14.6594 5.95068 13.3466 5.95068Z" fill="white"/>
</svg>
