<svg width="20" height="20" viewBox="0 0 20 20" fill="none" xmlns="http://www.w3.org/2000/svg">
<path d="M12.9794 5.3208H7.0185C6.06705 5.3208 5.29297 6.09488 5.29297 7.04633V13.0072C5.29297 13.9587 6.06705 14.733 7.0185 14.733H12.9794C13.9309 14.733 14.7052 13.9589 14.7052 13.0072V7.04633C14.7052 6.09488 13.9311 5.3208 12.9794 5.3208ZM9.99896 13.1253C8.29058 13.1253 6.90062 11.7354 6.90062 10.0268C6.90062 8.31842 8.29058 6.92846 9.99896 6.92846C11.7076 6.92846 13.0975 8.31842 13.0975 10.0268C13.0975 11.7352 11.7073 13.1253 9.99896 13.1253ZM13.1971 7.56907C12.7927 7.56907 12.4638 7.24018 12.4638 6.83599C12.4638 6.43179 12.7927 6.1029 13.1971 6.1029C13.6013 6.1029 13.9302 6.43179 13.9302 6.83599C13.9302 7.24018 13.6013 7.56907 13.1971 7.56907Z" fill="url(#paint0_linear_696_2092)"/>
<path d="M10.0002 8.23779C9.01399 8.23779 8.21094 9.04039 8.21094 10.0266C8.21094 11.0133 9.01399 11.8161 10.0002 11.8161C10.9868 11.8161 11.7892 11.0133 11.7892 10.0266C11.7892 9.04062 10.9866 8.23779 10.0002 8.23779Z" fill="url(#paint1_linear_696_2092)"/>
<path d="M10 0C4.47737 0 0 4.47737 0 10C0 15.5226 4.47737 20 10 20C15.5226 20 20 15.5226 20 10C20 4.47737 15.5226 0 10 0ZM16.0153 13.0074C16.0153 14.681 14.6541 16.0422 12.9805 16.0422H7.01954C5.34615 16.0422 3.98471 14.681 3.98471 13.0074V7.0465C3.98471 5.37311 5.34615 4.01168 7.01954 4.01168H12.9805C14.6541 4.01168 16.0153 5.37311 16.0153 7.0465V13.0074Z" fill="url(#paint2_linear_696_2092)"/>
<defs>
<linearGradient id="paint0_linear_696_2092" x1="9.99907" y1="5.3208" x2="9.99907" y2="14.733" gradientUnits="userSpaceOnUse">
<stop stop-color="#CA38A7"/>
<stop offset="1" stop-color="#FFC150"/>
</linearGradient>
<linearGradient id="paint1_linear_696_2092" x1="10.0001" y1="8.23779" x2="10.0001" y2="11.8161" gradientUnits="userSpaceOnUse">
<stop stop-color="#CA38A7"/>
<stop offset="1" stop-color="#FFC150"/>
</linearGradient>
<linearGradient id="paint2_linear_696_2092" x1="10" y1="0" x2="10" y2="20" gradientUnits="userSpaceOnUse">
<stop stop-color="#CA38A7"/>
<stop offset="1" stop-color="#FFC150"/>
</linearGradient>
</defs>
</svg>
